<?xml version="1.0" standalone="no"?><!DOCTYPE svg PUBLIC "-//W3C//DTD SVG 1.1//EN" "http://www.w3.org/Graphics/SVG/1.1/DTD/svg11.dtd"><svg t="1553415706484" class="icon" style="" viewBox="0 0 1024 1024" version="1.1" xmlns="http://www.w3.org/2000/svg" p-id="3328" xmlns:xlink="http://www.w3.org/1999/xlink" width="200" height="200"><defs><style type="text/css"></style></defs><path d="M266.24 81.92H143.36c-33.792 0-61.44 27.648-61.44 61.44v737.28c0 33.792 27.648 61.44 61.44 61.44h122.88c33.792 0 61.44-27.648 61.44-61.44V143.36c0-33.792-27.648-61.44-61.44-61.44z m20.48 798.72c0 11.264-9.216 20.48-20.48 20.48H143.36c-11.264 0-20.48-9.216-20.48-20.48V143.36c0-11.264 9.216-20.48 20.48-20.48h122.88c11.264 0 20.48 9.216 20.48 20.48v737.28z" p-id="3329"></path><path d="M235.52 184.32H174.08c-11.264 0-20.48 9.216-20.48 20.48s9.216 20.48 20.48 20.48h61.44c11.264 0 20.48-9.216 20.48-20.48s-9.216-20.48-20.48-20.48zM235.52 286.72H174.08c-11.264 0-20.48 9.216-20.48 20.48s9.216 20.48 20.48 20.48h61.44c11.264 0 20.48-9.216 20.48-20.48s-9.216-20.48-20.48-20.48zM235.52 389.12H174.08c-11.264 0-20.48 9.216-20.48 20.48s9.216 20.48 20.48 20.48h61.44c11.264 0 20.48-9.216 20.48-20.48s-9.216-20.48-20.48-20.48zM573.44 81.92H450.56c-33.792 0-61.44 27.648-61.44 61.44v737.28c0 33.792 27.648 61.44 61.44 61.44h122.88c33.792 0 61.44-27.648 61.44-61.44V143.36c0-33.792-27.648-61.44-61.44-61.44z m20.48 798.72c0 11.264-9.216 20.48-20.48 20.48H450.56c-11.264 0-20.48-9.216-20.48-20.48V143.36c0-11.264 9.216-20.48 20.48-20.48h122.88c11.264 0 20.48 9.216 20.48 20.48v737.28z" p-id="3330"></path><path d="M542.72 184.32H481.28c-11.264 0-20.48 9.216-20.48 20.48s9.216 20.48 20.48 20.48h61.44c11.264 0 20.48-9.216 20.48-20.48s-9.216-20.48-20.48-20.48zM542.72 286.72H481.28c-11.264 0-20.48 9.216-20.48 20.48s9.216 20.48 20.48 20.48h61.44c11.264 0 20.48-9.216 20.48-20.48s-9.216-20.48-20.48-20.48zM542.72 389.12H481.28c-11.264 0-20.48 9.216-20.48 20.48s9.216 20.48 20.48 20.48h61.44c11.264 0 20.48-9.216 20.48-20.48s-9.216-20.48-20.48-20.48zM880.64 81.92h-122.88c-33.792 0-61.44 27.648-61.44 61.44v737.28c0 33.792 27.648 61.44 61.44 61.44h122.88c33.792 0 61.44-27.648 61.44-61.44V143.36c0-33.792-27.648-61.44-61.44-61.44z m20.48 798.72c0 11.264-9.216 20.48-20.48 20.48h-122.88c-11.264 0-20.48-9.216-20.48-20.48V143.36c0-11.264 9.216-20.48 20.48-20.48h122.88c11.264 0 20.48 9.216 20.48 20.48v737.28z" p-id="3331"></path><path d="M849.92 184.32h-61.44c-11.264 0-20.48 9.216-20.48 20.48s9.216 20.48 20.48 20.48h61.44c11.264 0 20.48-9.216 20.48-20.48s-9.216-20.48-20.48-20.48zM849.92 286.72h-61.44c-11.264 0-20.48 9.216-20.48 20.48s9.216 20.48 20.48 20.48h61.44c11.264 0 20.48-9.216 20.48-20.48s-9.216-20.48-20.48-20.48zM849.92 389.12h-61.44c-11.264 0-20.48 9.216-20.48 20.48s9.216 20.48 20.48 20.48h61.44c11.264 0 20.48-9.216 20.48-20.48s-9.216-20.48-20.48-20.48z" p-id="3332"></path></svg>