<?xml version="1.0" standalone="no"?><!DOCTYPE svg PUBLIC "-//W3C//DTD SVG 1.1//EN" "http://www.w3.org/Graphics/SVG/1.1/DTD/svg11.dtd"><svg t="1555067798413" class="icon" style="" viewBox="0 0 1024 1024" version="1.1" xmlns="http://www.w3.org/2000/svg" p-id="2818" xmlns:xlink="http://www.w3.org/1999/xlink" width="200" height="200"><defs><style type="text/css"></style></defs><path d="M610.04808 936.456H556.80008V46.848A46.944 46.944 0 0 0 535.55208 7.68a48.496 48.496 0 0 0-44.28-4.096L94.72008 174.08a47.096 47.096 0 0 0-28.416 43.264v719.616h-49.92A16.336 16.336 0 0 0 0.00008 953.344v54.016c0 9.216 7.424 16.384 16.384 16.384H1007.36008a16.336 16.336 0 0 0 16.384-16.384v-54.016c0.512-9.216-6.912-16.384-16.128-16.384h-49.92m-683.776-57.344A16.336 16.336 0 0 1 257.53608 896H204.80008a16.336 16.336 0 0 1-16.384-16.384v-52.744c0-9.208 7.424-16.376 16.384-16.376h52.736c9.216 0 16.384 7.424 16.384 16.376v52.744z m0-132.608a16.336 16.336 0 0 1-16.384 16.384H204.80008a16.336 16.336 0 0 1-16.384-16.384v-52.736c0-9.216 7.424-16.384 16.384-16.384h52.736c9.216 0 16.384 7.424 16.384 16.384v52.736z m0-132.864a16.344 16.344 0 0 1-16.384 16.392H204.80008a16.336 16.336 0 0 1-16.384-16.392v-52.736c0-9.216 7.424-16.384 16.384-16.384h52.736c9.216 0 16.384 7.432 16.384 16.384v52.736z m0-132.864a16.336 16.336 0 0 1-16.384 16.384H204.80008a16.336 16.336 0 0 1-16.384-16.384v-52.736c0-9.216 7.424-16.384 16.384-16.384h52.736c9.216 0 16.384 7.424 16.384 16.384v52.736z m0-132.608a16.336 16.336 0 0 1-16.384 16.384H204.80008a16.336 16.336 0 0 1-16.384-16.384v-52.736c0-9.216 7.424-16.384 16.384-16.384h52.736c9.216 0 16.384 7.424 16.384 16.384v52.736z m160 530.944A16.336 16.336 0 0 1 417.53608 896H364.80008a16.336 16.336 0 0 1-16.384-16.384v-52.744c0-9.208 7.424-16.376 16.384-16.376h52.48c9.216 0 16.384 7.424 16.384 16.376v52.744h0.256z m0-132.608a16.336 16.336 0 0 1-16.384 16.384H364.80008a16.336 16.336 0 0 1-16.384-16.384v-52.736c0-9.216 7.424-16.384 16.384-16.384h52.48c9.216 0 16.384 7.424 16.384 16.384v52.736h0.256z m0-132.864a16.344 16.344 0 0 1-16.384 16.392H364.80008a16.336 16.336 0 0 1-16.384-16.392v-52.736c0-9.216 7.424-16.384 16.384-16.384h52.48c9.216 0 16.384 7.432 16.384 16.384v52.736h0.256z m0-132.864a16.336 16.336 0 0 1-16.384 16.384H364.80008a16.336 16.336 0 0 1-16.384-16.384v-52.736c0-9.216 7.424-16.384 16.384-16.384h52.48c9.216 0 16.384 7.424 16.384 16.384v52.736h0.256z m0-132.608a16.336 16.336 0 0 1-16.384 16.384H364.80008a16.336 16.336 0 0 1-16.384-16.384v-52.736c0-9.216 7.424-16.384 16.384-16.384h52.48c9.216 0 16.384 7.424 16.384 16.384v52.736h0.256z m0-132.864a16.336 16.336 0 0 1-16.384 16.384H364.80008a16.336 16.336 0 0 1-16.384-16.384v-52.736c0-9.216 7.424-16.384 16.384-16.384h52.48c9.216 0 16.384 7.424 16.384 16.384v52.736h0.256z" p-id="2819"></path><path d="M932.18408 107.376H629.32008a24.128 24.128 0 0 0-24.16 24.152l-0.024 126.216s0.048 0.032 0.024 0.08V363.68s0.024 0.04 0.024 0.088l-0.04 201.84s0.04 0.032 0.016 0.08l-0.016 201.856s0.04 0.032 0.016 0.072v126.136a24.152 24.152 0 0 0 24.16 24.16h302.88a24.136 24.136 0 0 0 24.144-24.16v-762.24a24.136 24.136 0 0 0-24.144-24.144h-0.016zM677.48008 231.864v-51.872l205.784 0.008v673.624H677.46408v-51.896l66.944 0.016c5.384 0 10.776-2.048 14.864-6.16 8.224-8.208 8.224-37.528 0-45.76a20.984 20.984 0 0 0-14.864-6.16l-66.944-0.016V697.76h110.888c5.4 0 10.776-2.048 14.88-6.16 8.224-8.216 8.224-37.536 0-45.752a20.96 20.96 0 0 0-14.88-6.16H677.46408v-45.888h66.92c5.392 0 10.784-2.072 14.872-6.168 8.216-8.208 8.216-37.52 0-45.752a20.92 20.92 0 0 0-14.872-6.16l-66.912-0.016v-45.896l110.88 0.024c5.4 0 10.776-2.048 14.88-6.16 8.224-8.208 8.224-37.536 0-45.76a20.984 20.984 0 0 0-14.88-6.152H677.46408l0.008-45.872h66.928a20.96 20.96 0 0 0 14.872-6.168c8.224-8.224 8.224-37.544 0-45.752a20.952 20.952 0 0 0-14.872-6.16h-66.928v-37.896h110.88c5.4 0 10.776-2.056 14.88-6.168 8.224-8.208 8.224-37.528 0-45.752a20.984 20.984 0 0 0-14.88-6.152H677.46408v58.096" p-id="2820"></path></svg>