<?xml version="1.0" standalone="no"?><!DOCTYPE svg PUBLIC "-//W3C//DTD SVG 1.1//EN" "http://www.w3.org/Graphics/SVG/1.1/DTD/svg11.dtd"><svg t="1553320387059" class="icon" style="" viewBox="0 0 1024 1024" version="1.1" xmlns="http://www.w3.org/2000/svg" p-id="2542" xmlns:xlink="http://www.w3.org/1999/xlink" width="200" height="200"><defs><style type="text/css"></style></defs><path d="M931.23828125 884.17708334M931.23828125 903.51302084L92.76171875 903.51302084c-15.53291016 0-28.125-12.59208984-28.125-28.125s12.59208984-28.125 28.125-28.125l838.4765625 0c15.53291016 0 28.125 12.59208984 28.125 28.125S946.77119141 903.51302084 931.23828125 903.51302084zM78.69921875 852.53645834L142.859375 666.20833334 323.03515625 853.41536459ZM193.8359375 603.80598959L371.375 787.49739584 761.609375 398.14192709 582.3125 217.96614584ZM641.19921875 149.41145834l177.5390625 177.5390625 50.9765625-52.734375c0 0 19.3359375-28.125 13.18359375-50.09765625S766.00390625 104.58723959 753.69921875 92.28255209s-36.03515625-10.546875-62.40234375 11.42578125S641.19921875 149.41145834 641.19921875 149.41145834z" p-id="2543"></path></svg>