<?xml version="1.0" standalone="no"?><!DOCTYPE svg PUBLIC "-//W3C//DTD SVG 1.1//EN" "http://www.w3.org/Graphics/SVG/1.1/DTD/svg11.dtd"><svg t="1555067727712" class="icon" style="" viewBox="0 0 1024 1024" version="1.1" xmlns="http://www.w3.org/2000/svg" p-id="2017" xmlns:xlink="http://www.w3.org/1999/xlink" width="200" height="200"><defs><style type="text/css"></style></defs><path d="M805.29908622 177.36832948H231.64548741c-26.40129897 0-47.80487111 21.40235852-47.80487111 47.80487111v573.64995793c0 26.40372622 21.40357215 47.80729837 47.80487111 47.80729837h573.65359881c26.40008533 0 47.80487111-21.40478578 47.80487111-47.80729837V225.17320059c0-26.40251259-21.40478578-47.80487111-47.80487111-47.80487111zM231.64548741 798.82315852v-1.79131734c0.62987378 0.6104557 1.2658157 1.20998875 1.90903941 1.79131734h-1.90903941z m573.65359881 0L619.48632178 602.81590518l-91.75404089 79.69056237-137.68870874-127.4881517-137.68021333 127.4881517-20.71665779 23.66335053v-480.99783111H805.29787259v573.65117155z m-151.38451911-288.20062815c49.3364717 0 89.36925867-40.10317748 89.36925867-89.50639882 0-49.44327111-40.03278697-89.52581689-89.36925867-89.52581688-49.3607443 0-89.37168592 40.08133215-89.37168593 89.52581688 0 49.40807585 40.01094163 89.50639882 89.37168593 89.50639882zM155.65892267 290.41428859v-47.80487111h-59.6583917c-26.40251259 0-47.80487111 21.40235852-47.80487112 47.80487111V730.82955852c0 26.40372622 21.40235852 47.80729837 47.80487112 47.80729837h59.6583917V730.82955852h-59.6583917V290.41550222h59.6583917zM879.83657718 731.13539318v47.80487112h59.65960534c26.40129897 0 47.80487111-21.40357215 47.80487111-47.80487112V290.717696c0-26.40129897-21.40357215-47.80608475-47.80487111-47.80608475h-59.65960534v47.80608475h59.65960534v440.41769718h-59.65960534z" p-id="2018"></path></svg>