<?xml version="1.0" standalone="no"?><!DOCTYPE svg PUBLIC "-//W3C//DTD SVG 1.1//EN" "http://www.w3.org/Graphics/SVG/1.1/DTD/svg11.dtd"><svg t="1553315257806" class="icon" style="" viewBox="0 0 1024 1024" version="1.1" xmlns="http://www.w3.org/2000/svg" p-id="5783" xmlns:xlink="http://www.w3.org/1999/xlink" width="200" height="200"><defs><style type="text/css"></style></defs><path d="M409.7 489.7H143.1c-43 0-78-35-78-78V145.1c0-43 35-78 78-78h266.6c43 0 78 35 78 78v266.6c0 43-35 78-78 78zM143.1 131.1c-7.6 0-14 6.4-14 14v266.6c0 7.6 6.4 14 14 14h266.6c7.6 0 14-6.4 14-14V145.1c0-7.6-6.4-14-14-14H143.1zM409.7 959.2H143.1c-43 0-78-35-78-78V614.6c0-43 35-78 78-78h266.6c43 0 78 35 78 78v266.6c0 43.1-35 78-78 78zM143.1 600.6c-7.6 0-14 6.4-14 14v266.6c0 7.6 6.4 14 14 14h266.6c7.6 0 14-6.4 14-14V614.6c0-7.6-6.4-14-14-14H143.1zM745.3 491.4c-20.9 0-40.5-8.1-55.2-22.8L555 333.5c-14.7-14.7-22.8-34.3-22.8-55.2 0-20.9 8.1-40.5 22.8-55.2l135.1-135c14.7-14.7 34.3-22.8 55.2-22.8 20.9 0 40.5 8.1 55.2 22.8l135.1 135.1c30.4 30.4 30.4 79.9 0 110.3L800.4 468.7c-14.7 14.7-34.3 22.7-55.1 22.7z m0-362.1c-3.6 0-7.2 1.3-9.9 4L600.2 268.5c-3.5 3.5-4 7.7-4 9.9s0.5 6.4 4 9.9l135.1 135.1c5.4 5.4 14.4 5.4 19.8 0l135.1-135.1c5.4-5.4 5.4-14.4 0-19.8l-135-135.2c-2.7-2.7-6.3-4-9.9-4zM878.6 959.2H612c-43 0-78-35-78-78V614.6c0-43 35-78 78-78h266.6c43 0 78 35 78 78v266.6c0 43.1-35 78-78 78zM612 600.6c-7.6 0-14 6.4-14 14v266.6c0 7.6 6.4 14 14 14h266.6c7.6 0 14-6.4 14-14V614.6c0-7.6-6.4-14-14-14H612z" fill="" p-id="5784"></path></svg>