<?xml version="1.0" standalone="no"?><!DOCTYPE svg PUBLIC "-//W3C//DTD SVG 1.1//EN" "http://www.w3.org/Graphics/SVG/1.1/DTD/svg11.dtd"><svg t="1555127037348" class="icon" style="" viewBox="0 0 1024 1024" version="1.1" xmlns="http://www.w3.org/2000/svg" p-id="2054" xmlns:xlink="http://www.w3.org/1999/xlink" width="200" height="200"><defs><style type="text/css"></style></defs><path d="M160 567.3V414.7c50.9-15.4 88-62.7 88-118.7 0-54.9-35.6-101.4-85-117.7V36c0-19.9-16.1-36-36-36S91 16.1 91 36v140.4C38.5 190.9 0 238.9 0 296c0 56 37.1 103.3 88 118.7v152.6C37.1 582.7 0 630 0 686c0 54.1 34.7 100.1 83 117.1V988c0 19.9 16.1 36 36 36s36-16.1 36-36V806.1c53.5-13.8 93-62.3 93-120.1 0-56-37.1-103.3-88-118.7zM72 296c0-28.7 23.3-52 52-52s52 23.3 52 52-23.3 52-52 52-52-23.3-52-52z m52 442c-28.7 0-52-23.3-52-52s23.3-52 52-52 52 23.3 52 52-23.3 52-52 52zM334 139.5v72h654c19.9 0 36-16.1 36-36s-16.1-36-36-36H334zM806 358.5H334v72h472c19.9 0 36-16.1 36-36s-16.1-36-36-36zM334 660.5h654c19.9 0 36-16.1 36-36s-16.1-36-36-36H334v72zM334 884.5h472c19.9 0 36-16.1 36-36s-16.1-36-36-36H334v72z" p-id="2055"></path></svg>